<svg id="visual" viewBox="0 0 900 600" width="900" height="600" xmlns="http://www.w3.org/2000/svg" xmlns:xlink="http://www.w3.org/1999/xlink" version="1.1"><path d="M0 309L18.8 287C37.7 265 75.3 221 112.8 211.5C150.3 202 187.7 227 225.2 248.2C262.7 269.3 300.3 286.7 337.8 276C375.3 265.3 412.7 226.7 450.2 203.5C487.7 180.3 525.3 172.7 562.8 189.7C600.3 206.7 637.7 248.3 675.2 258.8C712.7 269.3 750.3 248.7 787.8 243.7C825.3 238.7 862.7 249.3 881.3 254.7L900 260L900 601L881.3 601C862.7 601 825.3 601 787.8 601C750.3 601 712.7 601 675.2 601C637.7 601 600.3 601 562.8 601C525.3 601 487.7 601 450.2 601C412.7 601 375.3 601 337.8 601C300.3 601 262.7 601 225.2 601C187.7 601 150.3 601 112.8 601C75.3 601 37.7 601 18.8 601L0 601Z" fill="#715df2"></path><path d="M0 253L18.8 252.3C37.7 251.7 75.3 250.3 112.8 258.7C150.3 267 187.7 285 225.2 294C262.7 303 300.3 303 337.8 292.3C375.3 281.7 412.7 260.3 450.2 266.7C487.7 273 525.3 307 562.8 316.5C600.3 326 637.7 311 675.2 308.7C712.7 306.3 750.3 316.7 787.8 318.2C825.3 319.7 862.7 312.3 881.3 308.7L900 305L900 601L881.3 601C862.7 601 825.3 601 787.8 601C750.3 601 712.7 601 675.2 601C637.7 601 600.3 601 562.8 601C525.3 601 487.7 601 450.2 601C412.7 601 375.3 601 337.8 601C300.3 601 262.7 601 225.2 601C187.7 601 150.3 601 112.8 601C75.3 601 37.7 601 18.8 601L0 601Z" fill="#6c50f6"></path><path d="M0 423L18.8 419C37.7 415 75.3 407 112.8 401.3C150.3 395.7 187.7 392.3 225.2 394.5C262.7 396.7 300.3 404.3 337.8 405.8C375.3 407.3 412.7 402.7 450.2 404.5C487.7 406.3 525.3 414.7 562.8 414.3C600.3 414 637.7 405 675.2 406.2C712.7 407.3 750.3 418.7 787.8 405.3C825.3 392 862.7 354 881.3 335L900 316L900 601L881.3 601C862.7 601 825.3 601 787.8 601C750.3 601 712.7 601 675.2 601C637.7 601 600.3 601 562.8 601C525.3 601 487.7 601 450.2 601C412.7 601 375.3 601 337.8 601C300.3 601 262.7 601 225.2 601C187.7 601 150.3 601 112.8 601C75.3 601 37.7 601 18.8 601L0 601Z" fill="#6940fa"></path><path d="M0 468L18.8 465.7C37.7 463.3 75.3 458.7 112.8 447.5C150.3 436.3 187.7 418.7 225.2 418.7C262.7 418.7 300.3 436.3 337.8 440.5C375.3 444.7 412.7 435.3 450.2 435.3C487.7 435.3 525.3 444.7 562.8 454.2C600.3 463.7 637.7 473.3 675.2 466.2C712.7 459 750.3 435 787.8 433.5C825.3 432 862.7 453 881.3 463.5L900 474L900 601L881.3 601C862.7 601 825.3 601 787.8 601C750.3 601 712.7 601 675.2 601C637.7 601 600.3 601 562.8 601C525.3 601 487.7 601 450.2 601C412.7 601 375.3 601 337.8 601C300.3 601 262.7 601 225.2 601C187.7 601 150.3 601 112.8 601C75.3 601 37.7 601 18.8 601L0 601Z" fill="#672bfd"></path><path d="M0 477L18.8 483.3C37.7 489.7 75.3 502.3 112.8 512.3C150.3 522.3 187.7 529.7 225.2 523.3C262.7 517 300.3 497 337.8 491.8C375.3 486.7 412.7 496.3 450.2 499C487.7 501.7 525.3 497.3 562.8 493C600.3 488.7 637.7 484.3 675.2 492.3C712.7 500.3 750.3 520.7 787.8 530.5C825.3 540.3 862.7 539.7 881.3 539.3L900 539L900 601L881.3 601C862.7 601 825.3 601 787.8 601C750.3 601 712.7 601 675.2 601C637.7 601 600.3 601 562.8 601C525.3 601 487.7 601 450.2 601C412.7 601 375.3 601 337.8 601C300.3 601 262.7 601 225.2 601C187.7 601 150.3 601 112.8 601C75.3 601 37.7 601 18.8 601L0 601Z" fill="#6600ff"></path></svg>