<?xml version="1.0" standalone="no"?><svg xmlns="http://www.w3.org/2000/svg" viewBox="0 0 1440 320"><path fill="#5000ca" fill-opacity="0.71" d="M0,128L14.1,138.7C28.2,149,56,171,85,192C112.9,213,141,235,169,229.3C197.6,224,226,192,254,154.7C282.4,117,311,75,339,58.7C367.1,43,395,53,424,85.3C451.8,117,480,171,508,181.3C536.5,192,565,160,593,170.7C621.2,181,649,235,678,250.7C705.9,267,734,245,762,208C790.6,171,819,117,847,117.3C875.3,117,904,171,932,186.7C960,203,988,181,1016,186.7C1044.7,192,1073,224,1101,202.7C1129.4,181,1158,107,1186,106.7C1214.1,107,1242,181,1271,197.3C1298.8,213,1327,171,1355,138.7C1383.5,107,1412,85,1426,74.7L1440,64L1440,320L1425.9,320C1411.8,320,1384,320,1355,320C1327.1,320,1299,320,1271,320C1242.4,320,1214,320,1186,320C1157.6,320,1129,320,1101,320C1072.9,320,1045,320,1016,320C988.2,320,960,320,932,320C903.5,320,875,320,847,320C818.8,320,791,320,762,320C734.1,320,706,320,678,320C649.4,320,621,320,593,320C564.7,320,536,320,508,320C480,320,452,320,424,320C395.3,320,367,320,339,320C310.6,320,282,320,254,320C225.9,320,198,320,169,320C141.2,320,113,320,85,320C56.5,320,28,320,14,320L0,320Z"></path></svg>